<?xml version="1.0" encoding="utf-8"?>
<!-- Generator: Adobe Illustrator 23.0.3, SVG Export Plug-In . SVG Version: 6.00 Build 0)  -->
<svg version="1.0"
	 id="svg4136" inkscape:version="0.91pre4 r13712" sodipodi:docname="Xbox Logo.svg" xmlns:cc="http://creativecommons.org/ns#" xmlns:dc="http://purl.org/dc/elements/1.1/" xmlns:inkscape="http://www.inkscape.org/namespaces/inkscape" xmlns:rdf="http://www.w3.org/1999/02/22-rdf-syntax-ns#" xmlns:sodipodi="http://sodipodi.sourceforge.net/DTD/sodipodi-0.dtd" xmlns:svg="http://www.w3.org/2000/svg"
	 xmlns="http://www.w3.org/2000/svg" xmlns:xlink="http://www.w3.org/1999/xlink" x="0px" y="0px" viewBox="0 0 372.4 372.6"
	 enable-background="new 0 0 372.4 372.6" xml:space="preserve">
<path id="path4148" inkscape:connector-curvature="0" fill="#7f849c" d="M167.6,371.8c-28.7-2.7-57.7-13-82.7-29.3C64,328.8,59.3,323.2,59.3,312
	c0-22.5,24.7-61.8,67-106.7c24-25.5,57.5-55.4,61.1-54.6c7,1.6,63.3,56.4,84.3,82.2c33.3,40.8,48.6,74.2,40.8,89.1
	c-5.9,11.3-42.6,33.5-69.5,42C220.8,371.1,191.6,374.1,167.6,371.8L167.6,371.8z M31.1,288.7C13.7,262,4.9,235.8,0.7,197.8
	c-1.4-12.5-0.9-19.7,3.2-45.4c5.1-32.1,23.3-69.1,45.3-92c9.3-9.7,10.2-10,21.6-6.1c13.8,4.7,28.6,14.9,51.5,35.6l13.4,12.1l-7.3,9
	c-33.9,41.6-69.6,100.6-83.1,137.1c-7.3,19.8-10.3,39.8-7.1,48C40.2,301.7,38.2,299.6,31.1,288.7z M336,293.2
	c1.7-8.4-0.5-23.8-5.5-39.3c-11-33.6-47.8-96.1-81.7-138.6l-10.6-13.4l11.5-10.6c15-13.8,25.5-22.1,36.7-29.1
	c8.9-5.5,21.6-10.4,27.1-10.4c3.4,0,15.2,12.3,24.8,25.7c14.8,20.8,25.7,46,31.2,72.2c3.6,16.9,3.9,53.2,0.6,70.1
	c-2.7,13.9-8.4,31.9-14,44.1c-4.2,9.1-14.5,26.9-19.1,32.7C334.7,299.6,334.7,299.6,336,293.2L336,293.2z M170.7,45.5
	c-15.6-7.9-39.7-16.4-53-18.7c-4.7-0.8-12.6-1.2-17.7-1c-11,0.6-10.5,0,7.1-8.3c14.6-6.9,26.8-11,43.4-14.5c18.6-3.9,53.7-4,72-0.1
	c19.8,4.2,43.1,12.9,56.3,20.9l3.9,2.4l-9-0.5c-17.8-0.9-43.8,6.3-71.6,19.9c-8.4,4.1-15.7,7.4-16.2,7.3
	C185.4,52.8,178.5,49.4,170.7,45.5z"/>
</svg>
